# 3ds Max Wavefront OBJ Exporter v0.99 - (c)2007 guruware
# File Created: 27.10.2022 12:30:18

mtllib Bathroom Cabinet.mtl

#
# object Cabinet
#

v  -16.2359 0.4019 -0.0479
v  -18.1744 0.5782 -0.0479
v  -19.7605 1.1069 -0.0479
v  -20.9942 1.9880 -0.0479
v  -21.8753 3.2217 -0.0479
v  -22.4040 4.8077 -0.0479
v  -22.5802 6.7463 -0.0479
v  -23.4948 30.2755 -0.0479
v  -11.3222 30.2755 -0.0479
v  -11.4420 0.4019 -0.0479
v  -0.3038 30.2755 -0.0479
v  -0.3038 0.4019 -0.0479
v  10.8344 30.2755 -0.0479
v  10.8344 0.4019 -0.0479
v  22.9136 30.2755 -0.0479
v  21.9726 6.7463 -0.0479
v  21.7963 4.8077 -0.0479
v  21.2676 3.2217 -0.0479
v  20.3865 1.9880 -0.0479
v  19.1529 1.1069 -0.0479
v  17.5668 0.5782 -0.0479
v  15.6282 0.4019 -0.0479
v  -22.5802 53.8047 -0.0479
v  -22.4053 55.7648 -0.0479
v  -21.8806 57.4156 -0.0479
v  -21.0061 58.7571 -0.0479
v  -19.7817 59.7893 -0.0479
v  -18.2076 60.5121 -0.0479
v  -16.2836 60.9256 -0.0479
v  -11.4420 61.5227 -0.0479
v  -0.3038 62.3778 -0.0479
v  10.8344 62.8527 -0.0479
v  15.6283 62.8799 -0.0479
v  17.5668 62.7146 -0.0479
v  19.1529 62.1949 -0.0479
v  20.3865 61.3207 -0.0479
v  21.2677 60.0920 -0.0479
v  21.7963 58.5088 -0.0479
v  21.9726 56.5712 -0.0479
v  -11.4420 0.4019 25.1901
v  -16.2359 0.4019 25.1901
v  -0.3038 0.4019 25.1901
v  10.8344 0.4019 25.1901
v  15.6282 0.4019 25.1901
v  22.9136 30.2755 25.1901
v  21.9726 6.7463 25.1901
v  21.9726 56.8186 25.1901
v  10.8344 62.9158 25.1901
v  15.6297 63.0224 25.1901
v  -0.3038 62.3778 25.1901
v  -11.4420 61.5227 25.1901
v  -16.2836 60.9256 25.1901
v  -23.4948 30.2755 25.1901
v  -22.5802 53.8047 25.1901
v  -22.5802 6.7463 25.1901
v  -20.6281 2.3541 25.1901
v  -11.4420 2.3541 25.1901
v  -0.3038 2.3541 25.1901
v  10.8344 2.3541 25.1901
v  20.0205 2.3541 25.1901
v  20.9615 30.2755 25.1901
v  20.0205 61.2112 25.1901
v  10.8344 60.9637 25.1901
v  -0.3038 60.4257 25.1901
v  -11.4420 59.5706 25.1901
v  -20.6281 58.1970 25.1901
v  -21.5427 30.2755 25.1901
v  -11.4420 2.3741 2.6165
v  -20.6081 2.3741 2.6165
v  -0.3038 2.3741 2.6165
v  10.8344 2.3741 2.6165
v  20.0005 2.3741 2.6165
v  20.9415 30.2755 2.6165
v  20.0005 60.9437 2.6165
v  10.8344 60.9437 2.6165
v  -0.3038 60.4057 2.6165
v  -11.4420 59.5506 2.6165
v  -20.6081 58.1770 2.6165
v  -21.5227 30.2755 2.6165
v  21.7964 58.7533 25.1901
v  21.2678 60.3278 25.1902
v  20.3869 61.5419 25.1901
v  19.1535 62.3957 25.1902
v  17.5678 62.8892 25.1901
v  -18.2076 60.5121 25.1901
v  -19.7817 59.7893 25.1902
v  -21.0061 58.7571 25.1901
v  -21.8806 57.4156 25.1901
v  -22.4053 55.7648 25.1901
v  -20.9942 1.9880 25.1901
v  -19.7605 1.1069 25.1901
v  -18.1744 0.5782 25.1901
v  17.5668 0.5782 25.1901
v  19.1529 1.1069 25.1901
v  20.3865 1.9880 25.1901
v  21.2676 3.2217 25.1901
v  21.7963 4.8077 25.1901
v  -22.4040 4.8077 25.1901
v  -21.8753 3.2217 25.1901
v  -11.3222 30.2755 2.6165
v  -0.3038 30.2755 2.6165
v  10.8344 30.2755 2.6165
# 102 vertices

vn -0.0325 -0.7163 -0.6970
vn -0.1497 -0.7158 -0.6821
vn -0.3348 -0.6574 -0.6751
vn -0.5237 -0.5237 -0.6719
vn -0.6574 -0.3348 -0.6751
vn -0.7158 -0.1497 -0.6821
vn -0.7113 -0.0461 -0.7014
vn -0.7156 0.0000 -0.6985
vn 0.0000 0.0000 -1.0000
vn 0.0000 -0.7071 -0.7071
vn 0.7154 -0.0015 -0.6987
vn 0.7112 -0.0465 -0.7015
vn 0.7158 -0.1497 -0.6821
vn 0.6574 -0.3348 -0.6751
vn 0.5237 -0.5237 -0.6719
vn 0.3348 -0.6574 -0.6751
vn 0.1497 -0.7158 -0.6821
vn 0.0325 -0.7163 -0.6970
vn -0.7112 0.0455 -0.7015
vn -0.7158 0.1439 -0.6833
vn -0.6642 0.3149 -0.6780
vn -0.5522 0.4883 -0.6758
vn -0.3938 0.6206 -0.6781
vn -0.2304 0.6928 -0.6833
vn -0.1193 0.7068 -0.6972
vn -0.0709 0.7087 -0.7020
vn -0.0424 0.7096 -0.7033
vn -0.0171 0.7101 -0.7039
vn 0.0284 0.7145 -0.6991
vn 0.1455 0.7144 -0.6845
vn 0.3311 0.6567 -0.6776
vn 0.5212 0.5235 -0.6740
vn 0.6561 0.3344 -0.6765
vn 0.7153 0.1493 -0.6827
vn 0.7115 0.0449 -0.7012
vn 0.0000 -0.7071 0.7071
vn -0.0325 -0.7163 0.6970
vn 0.0325 -0.7163 0.6970
vn 0.7154 -0.0016 0.6987
vn 0.7112 -0.0465 0.7015
vn 0.7120 0.0451 0.7007
vn -0.0250 0.7105 0.7033
vn 0.0167 0.7188 0.6950
vn -0.0443 0.7088 0.7040
vn -0.0709 0.7087 0.7020
vn -0.1193 0.7068 0.6972
vn -0.7156 -0.0000 0.6985
vn -0.7112 0.0455 0.7015
vn -0.7113 -0.0461 0.7014
vn 0.0000 -0.0000 1.0000
vn 0.0000 0.7067 0.7075
vn 0.5672 0.5861 -0.5786
vn -0.3019 0.3122 0.9008
vn -0.6994 0.0011 0.7148
vn 1.0000 0.0000 -0.0000
vn -0.5602 -0.5972 -0.5741
vn 0.0265 -0.7039 0.7098
vn 0.0439 -0.7022 0.7107
vn 0.0784 -0.6941 0.7156
vn 0.6046 -0.5384 -0.5870
vn 0.6993 -0.0000 0.7149
vn 0.5667 0.5856 0.5796
vn -0.5664 0.5859 0.5796
vn -0.7140 0.0011 0.7002
vn -0.5679 -0.5817 0.5824
vn 0.0172 -0.7119 0.7021
vn 0.0443 -0.7086 0.7042
vn 0.0804 -0.7102 0.6994
vn 0.6042 -0.5378 0.5880
vn 0.7141 -0.0000 0.7001
vn 0.7164 0.1512 0.6811
vn 0.6572 0.3393 0.6730
vn 0.5194 0.5318 0.6689
vn 0.3243 0.6658 0.6720
vn 0.1350 0.7213 0.6794
vn -0.2304 0.6928 0.6833
vn -0.3938 0.6206 0.6781
vn -0.5523 0.4883 0.6757
vn -0.6642 0.3149 0.6780
vn -0.7158 0.1439 0.6833
vn -0.5237 -0.5237 0.6719
vn -0.3348 -0.6574 0.6751
vn -0.1497 -0.7158 0.6821
vn 0.1497 -0.7158 0.6821
vn 0.3348 -0.6574 0.6751
vn 0.5237 -0.5237 0.6719
vn 0.6574 -0.3348 0.6751
vn 0.7158 -0.1497 0.6821
vn -0.7158 -0.1497 0.6821
vn -0.6574 -0.3348 0.6751
# 90 vertex normals

vt 0.8576 0.0000 0.0000
vt 0.9051 0.0000 0.0000
vt 0.9525 0.0000 0.0000
vt 1.0000 0.0000 0.0000
vt 1.0000 0.0354 0.0000
vt 1.0000 0.0708 0.0000
vt 1.0000 0.1062 0.0000
vt 1.0000 0.5000 0.0000
vt 0.7500 0.5000 0.0000
vt 0.7500 0.0000 0.0000
vt 0.5000 0.5000 0.0000
vt 0.5000 0.0000 0.0000
vt 0.2500 0.5000 0.0000
vt 0.2500 0.0000 0.0000
vt 0.0000 0.5000 0.0000
vt 0.0000 0.1062 0.0000
vt 0.0000 0.0708 0.0000
vt 0.0000 0.0354 0.0000
vt 0.0000 0.0000 0.0000
vt 0.0475 0.0000 0.0000
vt 0.0949 0.0000 0.0000
vt 0.1424 0.0000 0.0000
vt 1.0000 0.8938 0.0000
vt 1.0000 0.9292 0.0000
vt 1.0000 0.9646 0.0000
vt 1.0000 1.0000 0.0000
vt 0.9529 1.0000 0.0000
vt 0.9058 1.0000 0.0000
vt 0.8587 1.0000 0.0000
vt 0.7500 1.0000 0.0000
vt 0.5000 1.0000 0.0000
vt 0.2500 1.0000 0.0000
vt 0.1424 1.0000 0.0000
vt 0.0949 1.0000 0.0000
vt 0.0475 1.0000 0.0000
vt 0.0000 1.0000 0.0000
vt 0.0000 0.9676 0.0000
vt 0.0000 0.9352 0.0000
vt 0.0000 0.9028 0.0000
vt 0.8576 1.0000 0.0000
vt 0.1062 0.0000 0.0000
vt 0.1062 1.0000 0.0000
vt 0.9028 0.0000 0.0000
vt 0.9035 1.0000 0.0000
vt 0.8587 0.0000 0.0000
vt 0.8938 0.0000 0.0000
vt 0.8938 1.0000 0.0000
vt 1.0000 0.9035 0.0000
vt 0.1413 1.0000 0.0000
vt 0.0000 0.8938 0.0000
vt 1.0000 0.9357 0.0000
vt 1.0000 0.9678 0.0000
vt 0.9525 1.0000 0.0000
vt 0.9051 1.0000 0.0000
vt 0.0942 1.0000 0.0000
vt 0.0471 1.0000 0.0000
vt 0.0000 0.9646 0.0000
vt 0.0000 0.9292 0.0000
vt 0.9352 0.0000 0.0000
vt 0.9357 1.0000 0.0000
vt 0.9676 0.0000 0.0000
vt 0.9678 1.0000 0.0000
vt 0.9058 0.0000 0.0000
vt 0.9529 0.0000 0.0000
vt 0.0708 1.0000 0.0000
vt 0.0708 0.0000 0.0000
vt 0.0354 1.0000 0.0000
vt 0.0354 0.0000 0.0000
vt 0.9292 0.0000 0.0000
vt 0.9292 1.0000 0.0000
vt 0.9646 0.0000 0.0000
vt 0.9646 1.0000 0.0000
# 72 texture coords

o Cabinet
g Cabinet
usemtl wire_006135006
s 1
f 1/1/1 2/2/2 3/3/3 4/4/4 5/5/5 6/6/6 7/7/7 8/8/8 9/9/9 10/10/10 
f 10/10/10 9/9/9 11/11/9 12/12/10 
f 12/12/10 11/11/9 13/13/9 14/14/10 
f 14/14/10 13/13/9 15/15/11 16/16/12 17/17/13 18/18/14 19/19/15 20/20/16 21/21/17 22/22/18 
f 8/8/8 23/23/19 24/24/20 25/25/21 26/26/22 27/27/23 28/28/24 29/29/25 30/30/26 9/9/9 
f 9/9/9 30/30/26 31/31/27 11/11/9 
f 11/11/9 31/31/27 32/32/28 13/13/9 
f 13/13/9 32/32/28 33/33/29 34/34/30 35/35/31 36/36/32 37/37/33 38/38/34 39/39/35 15/15/11 
s 2
f 1/22/1 10/14/10 40/32/36 41/33/37 
f 10/14/10 12/12/10 42/31/36 40/32/36 
f 12/12/10 14/10/10 43/30/36 42/31/36 
f 14/10/10 22/1/18 44/40/38 43/30/36 
f 16/41/12 15/12/11 45/31/39 46/42/40 
f 15/12/11 39/43/35 47/44/41 45/31/39 
f 33/22/29 32/14/28 48/32/42 49/33/43 
f 32/14/28 31/12/27 50/31/44 48/32/42 
f 31/12/27 30/10/26 51/30/45 50/31/44 
f 30/10/26 29/45/25 52/29/46 51/30/45 
f 23/41/19 8/12/8 53/31/47 54/42/48 
f 8/12/8 7/46/7 55/47/49 53/31/47 
s 1
f 56/19/50 41/22/37 40/14/36 57/14/51 56/19/52 
f 40/14/36 42/12/36 58/12/51 57/14/51 
f 42/12/36 43/10/36 59/10/51 58/12/51 
f 43/10/36 44/1/38 60/4/50 60/4/53 59/10/51 
f 60/4/50 46/7/40 45/8/39 61/8/54 60/4/53 
f 45/8/39 47/48/41 62/26/55 62/26/56 61/8/54 
f 62/26/55 49/40/43 48/30/42 63/30/57 62/26/56 
f 48/30/42 50/31/44 64/31/58 63/30/57 
f 50/31/44 51/32/45 65/32/59 64/31/58 
f 51/32/45 52/49/46 66/36/50 66/36/60 65/32/59 
f 66/36/50 54/50/48 53/15/47 67/15/61 66/36/60 
f 53/15/47 55/16/49 56/19/50 56/19/52 67/15/61 
s 2
f 56/19/52 57/14/51 68/14/51 69/19/62 
f 57/14/51 58/12/51 70/12/51 68/14/51 
f 58/12/51 59/10/51 71/10/51 70/12/51 
f 59/10/51 60/4/53 72/4/63 71/10/51 
s 4
f 60/4/53 61/8/54 73/8/64 72/4/63 
f 61/8/54 62/26/56 74/26/65 73/8/64 
s 2
f 62/26/56 63/30/57 75/30/66 74/26/65 
f 63/30/57 64/31/58 76/31/67 75/30/66 
f 64/31/58 65/32/59 77/32/68 76/31/67 
f 65/32/59 66/36/60 78/36/69 77/32/68 
s 4
f 66/36/60 67/15/61 79/15/70 78/36/69 
f 67/15/61 56/19/52 69/19/62 79/15/70 
s 1
f 47/48/41 80/51/71 81/52/72 82/26/73 62/26/55 
f 62/26/55 82/26/73 83/53/74 84/54/75 49/40/43 
f 52/49/46 85/55/76 86/56/77 87/36/78 66/36/50 
f 66/36/50 87/36/78 88/57/79 89/58/80 54/50/48 
s 2
f 47/44/41 39/43/35 38/59/34 80/60/71 
f 80/60/71 38/59/34 37/61/33 81/62/72 
f 81/62/72 37/61/33 36/4/32 82/26/73 
f 33/22/29 49/33/43 84/34/75 34/21/30 
f 34/21/30 84/34/75 83/35/74 35/20/31 
f 35/20/31 83/35/74 82/36/73 36/19/32 
f 52/29/46 29/45/25 28/63/24 85/28/76 
f 85/28/76 28/63/24 27/64/23 86/27/77 
f 86/27/77 27/64/23 26/4/22 87/26/78 
f 23/41/19 54/42/48 89/65/80 24/66/20 
f 24/66/20 89/65/80 88/67/79 25/68/21 
f 25/68/21 88/67/79 87/36/78 26/19/22 
s 1
f 56/19/50 90/19/81 91/20/82 92/21/83 41/22/37 
f 44/1/38 93/2/84 94/3/85 95/4/86 60/4/50 
f 60/4/50 95/4/86 96/5/87 97/6/88 46/7/40 
f 55/16/49 98/17/89 99/18/90 90/19/81 56/19/50 
s 2
f 1/22/1 41/33/37 92/34/83 2/21/2 
f 2/21/2 92/34/83 91/35/82 3/20/3 
f 3/20/3 91/35/82 90/36/81 4/19/4 
f 44/40/38 22/1/18 21/2/17 93/54/84 
f 93/54/84 21/2/17 20/3/16 94/53/85 
f 94/53/85 20/3/16 19/4/15 95/26/86 
f 16/41/12 46/42/40 97/65/88 17/66/13 
f 17/66/13 97/65/88 96/67/87 18/68/14 
f 18/68/14 96/67/87 95/36/86 19/19/15 
f 55/47/49 7/46/7 6/69/6 98/70/89 
f 98/70/89 6/69/6 5/71/5 99/72/90 
f 99/72/90 5/71/5 4/4/4 90/26/81 
s 1
f 69/19/62 68/14/51 100/13/50 79/15/70 
f 68/14/51 70/12/51 101/11/50 100/13/50 
f 70/12/51 71/10/51 102/9/50 101/11/50 
f 71/10/51 72/4/63 73/8/64 102/9/50 
f 79/15/70 100/13/50 77/32/68 78/36/69 
f 100/13/50 101/11/50 76/31/67 77/32/68 
f 101/11/50 102/9/50 75/30/66 76/31/67 
f 102/9/50 73/8/64 74/26/65 75/30/66 
# 84 polygons

#
# object Cabinet_Door_L
#

v  -20.6081 2.3741 25.0108
v  -11.4420 2.3741 25.0108
v  -11.3222 30.2755 25.0108
v  -21.5227 30.2755 25.0108
v  -0.3038 2.3741 25.0108
v  -0.3038 30.2755 25.0108
v  -11.4420 59.5506 25.0108
v  -20.6081 58.1770 25.0108
v  -0.3038 60.4057 25.0108
v  -0.3038 2.3741 22.5108
v  -0.3038 30.2755 22.5108
v  -0.3038 60.4057 22.5108
v  -11.4420 59.5506 22.5108
v  -20.6081 58.1770 22.5108
v  -21.5227 30.2755 22.5108
v  -20.6081 2.3741 22.5108
v  -11.4420 2.3741 22.5108
v  -10.9133 30.2755 22.5108
# 18 vertices

vn -0.5670 -0.5858 0.5791
vn 0.0000 -0.7071 0.7071
vn 0.0000 -0.0000 1.0000
vn -0.7143 -0.0000 0.6998
vn 0.5774 -0.5774 0.5774
vn 0.7071 -0.0000 0.7071
vn -0.0804 0.7105 0.6991
vn -0.6044 0.5381 0.5875
vn 0.5567 0.6011 0.5734
vn 0.5774 -0.5774 -0.5774
vn 0.7071 0.0000 -0.7071
vn 0.5567 0.6011 -0.5734
vn -0.0804 0.7105 -0.6991
vn -0.6044 0.5381 -0.5875
vn -0.7143 0.0000 -0.6998
vn -0.5670 -0.5858 -0.5791
vn 0.0000 -0.7071 -0.7071
vn 0.0000 0.0000 -1.0000
# 18 vertex normals

vt 0.0000 0.0000 0.0000
vt 0.2500 0.0000 0.0000
vt 0.2500 0.5000 0.0000
vt 0.0000 0.5000 0.0000
vt 0.5000 0.0000 0.0000
vt 0.5000 0.5000 0.0000
vt 0.2500 1.0000 0.0000
vt 0.0000 1.0000 0.0000
vt 0.5000 1.0000 0.0000
vt 1.0000 0.5000 0.0000
vt 1.0000 0.0000 0.0000
vt 0.7500 0.0000 0.0000
vt 0.7500 0.5000 0.0000
vt 0.5000 0.2500 0.0000
# 14 texture coords

o Cabinet_Door_L
g Cabinet_Door_L
usemtl wire_006135006
s 1
f 103/73/91 104/74/92 105/75/93 106/76/94 
f 104/74/92 107/77/95 108/78/96 105/75/93 
f 106/76/94 105/75/93 109/79/97 110/80/98 
f 105/75/93 108/78/96 111/81/99 109/79/97 
s off
f 112/77/100 113/78/101 108/78/96 107/77/95 
f 113/78/101 114/81/102 111/81/99 108/78/96 
f 114/81/102 115/79/103 109/79/97 111/81/99 
f 115/79/103 116/80/104 110/80/98 109/79/97 
f 116/80/104 117/76/105 106/76/94 110/80/98 
f 117/76/105 118/73/106 103/73/91 106/76/94 
f 118/73/106 119/74/107 104/74/92 103/73/91 
f 119/74/107 112/77/100 107/77/95 104/74/92 
s 1
f 117/82/105 116/83/104 115/84/103 120/85/108 
s 2
f 118/85/106 117/82/105 120/85/108 119/86/107 
s 1
f 115/84/103 114/77/102 113/78/101 120/85/108 
s 2
f 120/85/108 113/78/101 112/74/100 119/86/107 
# 16 polygons

#
# object Cabinet_Door_R
#

v  -0.3038 2.3741 25.0108
v  10.8344 2.3741 25.0108
v  10.8344 30.2755 25.0108
v  -0.3038 30.2755 25.0108
v  20.0005 2.3741 25.0108
v  20.9415 30.2755 25.0108
v  10.8344 60.9437 25.0108
v  -0.3038 60.4057 25.0108
v  20.0005 60.9437 25.0108
v  -0.3038 2.3741 22.5108
v  10.8344 2.3741 22.5108
v  20.0005 2.3741 22.5108
v  20.9415 30.2755 22.5108
v  20.0005 60.9437 22.5108
v  10.8344 60.9437 22.5108
v  -0.3038 60.4057 22.5108
v  -0.3038 30.2755 22.5108
v  10.3188 30.2755 22.5108
# 18 vertices

vn -0.5774 -0.5774 0.5774
vn 0.0000 -0.7071 0.7071
vn 0.0000 -0.0000 1.0000
vn -0.7071 -0.0000 0.7071
vn 0.5667 -0.5861 0.5791
vn 0.7142 -0.0011 0.7000
vn -0.0172 0.7122 0.7017
vn -0.5898 0.5620 0.5799
vn 0.5675 0.5853 0.5790
vn -0.5774 -0.5774 -0.5774
vn 0.0000 -0.7071 -0.7071
vn 0.5667 -0.5861 -0.5791
vn 0.7142 -0.0011 -0.7000
vn 0.5675 0.5853 -0.5790
vn -0.0172 0.7123 -0.7017
vn -0.5898 0.5620 -0.5799
vn -0.7071 0.0000 -0.7071
vn 0.0000 0.0000 -1.0000
# 18 vertex normals

vt 0.5000 0.0000 0.0000
vt 0.7500 0.0000 0.0000
vt 0.7500 0.5000 0.0000
vt 0.5000 0.5000 0.0000
vt 1.0000 0.0000 0.0000
vt 1.0000 0.5000 0.0000
vt 0.7500 1.0000 0.0000
vt 0.5000 1.0000 0.0000
vt 1.0000 1.0000 0.0000
# 9 texture coords

o Cabinet_Door_R
g Cabinet_Door_R
usemtl wire_006135006
s 1
f 121/87/109 122/88/110 123/89/111 124/90/112 
f 122/88/110 125/91/113 126/92/114 123/89/111 
f 124/90/112 123/89/111 127/93/115 128/94/116 
f 123/89/111 126/92/114 129/95/117 127/93/115 
s off
f 130/87/118 131/88/119 122/88/110 121/87/109 
f 131/88/119 132/91/120 125/91/113 122/88/110 
f 132/91/120 133/92/121 126/92/114 125/91/113 
f 133/92/121 134/95/122 129/95/117 126/92/114 
f 134/95/122 135/93/123 127/93/115 129/95/117 
f 135/93/123 136/94/124 128/94/116 127/93/115 
f 136/94/124 137/90/125 124/90/112 128/94/116 
f 137/90/125 130/87/118 121/87/109 124/90/112 
s 1
f 137/90/125 136/94/124 135/93/123 138/89/126 
s 2
f 130/87/118 137/90/125 138/89/126 131/88/119 
s 1
f 135/93/123 134/95/122 133/92/121 138/89/126 
s 2
f 138/89/126 133/92/121 132/91/120 131/88/119 
# 16 polygons

#
# object Handle_R
#

v  1.5548 29.6812 24.7122
v  1.5548 30.1514 24.7122
v  1.8873 30.0137 24.7122
v  2.0250 29.6812 24.7122
v  1.0845 29.6812 24.7122
v  1.2223 30.0137 24.7122
v  1.5548 29.2110 24.7122
v  1.2223 29.3487 24.7122
v  1.8873 29.3487 24.7122
v  1.8873 30.0137 25.7605
v  2.0250 29.6812 25.7605
v  1.5548 30.1514 25.7605
v  1.2223 30.0137 25.7605
v  1.0845 29.6812 25.7605
v  1.2223 29.3487 25.7605
v  1.5548 29.2110 25.7605
v  1.8873 29.3487 25.7605
v  1.5548 29.6812 25.7605
# 18 vertices

vn -0.0000 0.0000 -1.0000
vn 0.0000 0.7763 -0.6303
vn 0.5490 0.5490 -0.6303
vn 0.7764 0.0000 -0.6303
vn -0.7764 0.0000 -0.6303
vn -0.5490 0.5489 -0.6303
vn -0.0000 -0.7764 -0.6303
vn -0.5490 -0.5490 -0.6303
vn 0.5490 -0.5490 -0.6303
vn 0.5490 0.5490 0.6303
vn 0.7764 -0.0000 0.6303
vn 0.0000 0.7763 0.6303
vn -0.5490 0.5489 0.6303
vn -0.7764 -0.0000 0.6303
vn -0.5490 -0.5490 0.6303
vn 0.0000 -0.7764 0.6303
vn 0.5490 -0.5490 0.6303
vn 0.0000 -0.0000 1.0000
# 18 vertex normals

vt 0.5000 0.0000 0.0000
vt 0.7803 0.0000 0.4142
vt 0.8750 0.0000 1.0000
vt 0.7500 0.0000 1.0000
vt 0.2500 0.0000 1.0000
vt 0.1250 0.0000 1.0000
vt 0.0000 0.0000 1.0000
vt 0.5000 0.0000 1.0000
vt 0.3750 0.0000 1.0000
vt 0.6250 0.0000 1.0000
vt 0.8750 1.0000 1.0000
vt 0.7500 1.0000 1.0000
vt -0.1250 0.0000 1.0000
vt 0.0000 1.0000 1.0000
vt -0.1250 1.0000 1.0000
vt 0.1250 1.0000 1.0000
vt 0.2500 1.0000 1.0000
vt 0.3750 1.0000 1.0000
vt 0.5000 1.0000 1.0000
vt 0.6250 1.0000 1.0000
vt 0.5000 1.0000 0.0000
# 21 texture coords

o Handle_R
g Handle_R
usemtl wire_225198087
s 1
f 139/96/127 140/97/128 141/98/129 142/99/130 
f 139/96/127 143/100/131 144/101/132 140/102/128 
f 139/96/127 145/103/133 146/104/134 143/100/131 
f 139/96/127 142/99/130 147/105/135 145/103/133 
s 8
f 142/99/130 141/98/129 148/106/136 149/107/137 
f 141/108/129 140/102/128 150/109/138 148/110/136 
f 140/102/128 144/101/132 151/111/139 150/109/138 
f 144/101/132 143/100/131 152/112/140 151/111/139 
f 143/100/131 146/104/134 153/113/141 152/112/140 
f 146/104/134 145/103/133 154/114/142 153/113/141 
f 145/103/133 147/105/135 155/115/143 154/114/142 
f 147/105/135 142/99/130 149/107/137 155/115/143 
s 1
f 156/116/144 155/115/143 149/107/137 148/106/136 
f 156/116/144 148/110/136 150/109/138 151/111/139 
f 156/116/144 151/111/139 152/112/140 153/113/141 
f 156/116/144 153/113/141 154/114/142 155/115/143 
# 16 polygons

#
# object Handle_L
#

v  -2.1266 29.6812 24.7122
v  -2.1266 30.1514 24.7122
v  -1.7941 30.0137 24.7122
v  -1.6564 29.6812 24.7122
v  -2.5968 29.6812 24.7122
v  -2.4591 30.0137 24.7122
v  -2.1266 29.2110 24.7122
v  -2.4591 29.3487 24.7122
v  -1.7941 29.3487 24.7122
v  -1.7941 30.0137 25.7605
v  -1.6564 29.6812 25.7605
v  -2.1266 30.1514 25.7605
v  -2.4591 30.0137 25.7605
v  -2.5968 29.6812 25.7605
v  -2.4591 29.3487 25.7605
v  -2.1266 29.2110 25.7605
v  -1.7941 29.3487 25.7605
v  -2.1266 29.6812 25.7605
# 18 vertices

vn -0.0000 0.0000 -1.0000
vn 0.0000 0.7763 -0.6303
vn 0.5490 0.5490 -0.6303
vn 0.7764 0.0000 -0.6303
vn -0.7764 0.0000 -0.6303
vn -0.5490 0.5489 -0.6303
vn -0.0000 -0.7764 -0.6303
vn -0.5490 -0.5490 -0.6303
vn 0.5490 -0.5490 -0.6303
vn 0.5490 0.5490 0.6303
vn 0.7764 -0.0000 0.6303
vn 0.0000 0.7763 0.6303
vn -0.5490 0.5489 0.6303
vn -0.7764 -0.0000 0.6303
vn -0.5490 -0.5490 0.6303
vn 0.0000 -0.7764 0.6303
vn 0.5490 -0.5490 0.6303
vn 0.0000 -0.0000 1.0000
# 18 vertex normals

vt 0.5000 0.0000 0.0000
vt 0.7803 0.0000 0.4142
vt 0.8750 0.0000 1.0000
vt 0.7500 0.0000 1.0000
vt 0.2500 0.0000 1.0000
vt 0.1250 0.0000 1.0000
vt 0.0000 0.0000 1.0000
vt 0.5000 0.0000 1.0000
vt 0.3750 0.0000 1.0000
vt 0.6250 0.0000 1.0000
vt 0.8750 1.0000 1.0000
vt 0.7500 1.0000 1.0000
vt -0.1250 0.0000 1.0000
vt 0.0000 1.0000 1.0000
vt -0.1250 1.0000 1.0000
vt 0.1250 1.0000 1.0000
vt 0.2500 1.0000 1.0000
vt 0.3750 1.0000 1.0000
vt 0.5000 1.0000 1.0000
vt 0.6250 1.0000 1.0000
vt 0.5000 1.0000 0.0000
# 21 texture coords

o Handle_L
g Handle_L
usemtl wire_225198087
s 1
f 157/117/145 158/118/146 159/119/147 160/120/148 
f 157/117/145 161/121/149 162/122/150 158/123/146 
f 157/117/145 163/124/151 164/125/152 161/121/149 
f 157/117/145 160/120/148 165/126/153 163/124/151 
s 8
f 160/120/148 159/119/147 166/127/154 167/128/155 
f 159/129/147 158/123/146 168/130/156 166/131/154 
f 158/123/146 162/122/150 169/132/157 168/130/156 
f 162/122/150 161/121/149 170/133/158 169/132/157 
f 161/121/149 164/125/152 171/134/159 170/133/158 
f 164/125/152 163/124/151 172/135/160 171/134/159 
f 163/124/151 165/126/153 173/136/161 172/135/160 
f 165/126/153 160/120/148 167/128/155 173/136/161 
s 1
f 174/137/162 173/136/161 167/128/155 166/127/154 
f 174/137/162 166/131/154 168/130/156 169/132/157 
f 174/137/162 169/132/157 170/133/158 171/134/159 
f 174/137/162 171/134/159 172/135/160 173/136/161 
# 16 polygons

#
# object Shelf
#

v  -21.9022 29.3203 24.7073
v  -21.9022 29.3203 3.0272
v  21.3731 29.3203 3.0272
v  21.3731 29.3203 24.7073
v  -21.9022 30.4155 24.7073
v  21.3731 30.4155 24.7073
v  21.3731 30.4155 3.0272
v  -21.9022 30.4155 3.0272
# 8 vertices

vn -0.5774 -0.5774 0.5774
vn -0.5774 -0.5774 -0.5774
vn 0.5774 -0.5774 -0.5774
vn 0.5774 -0.5774 0.5774
vn -0.5774 0.5774 0.5774
vn 0.5774 0.5774 0.5774
vn 0.5774 0.5774 -0.5774
vn -0.5774 0.5774 -0.5774
# 8 vertex normals

vt 1.0000 0.0000 0.0000
vt 1.0000 1.0000 0.0000
vt 0.0000 1.0000 0.0000
vt 0.0000 0.0000 0.0000
# 4 texture coords

o Shelf
g Shelf
usemtl wire_138008110
s 2
f 175/138/163 176/139/164 177/140/165 178/141/166 
s 4
f 179/141/167 180/138/168 181/139/169 182/140/170 
s 8
f 175/141/163 178/138/166 180/139/168 179/140/167 
s 16
f 178/141/166 177/138/165 181/139/169 180/140/168 
s 32
f 177/141/165 176/138/164 182/139/170 181/140/169 
s 64
f 176/141/164 175/138/163 179/139/167 182/140/170 
# 6 polygons

